<svg xmlns="http://www.w3.org/2000/svg" xmlns:xlink="http://www.w3.org/1999/xlink" contentStyleType="text/css" data-diagram-type="ACTIVITY" height="656px" preserveAspectRatio="none" style="width:425px;height:656px;background:#FFFFFF;" version="1.1" viewBox="0 0 425 656" width="425px" zoomAndPan="magnify"><defs/><g><ellipse cx="222.1558" cy="20" fill="#222222" rx="10" ry="10" style="stroke:#222222;stroke-width:1;"/><rect fill="#F1F1F1" height="33.9688" rx="12.5" ry="12.5" style="stroke:#181818;stroke-width:0.5;" width="142.959" x="150.6763" y="50"/><text fill="#000000" font-family="sans-serif" font-size="12" lengthAdjust="spacing" textLength="122.959" x="160.6763" y="71.1387">Usuario inicia sesi&#243;n</text><polygon fill="#F1F1F1" points="162.5339,103.9688,281.7776,103.9688,293.7776,115.9688,281.7776,127.9688,162.5339,127.9688,150.5339,115.9688,162.5339,103.9688" style="stroke:#181818;stroke-width:0.5;"/><text fill="#000000" font-family="sans-serif" font-size="11" lengthAdjust="spacing" textLength="119.2437" x="162.5339" y="119.7769">Credenciales v&#225;lidas?</text><text fill="#000000" font-family="sans-serif" font-size="11" lengthAdjust="spacing" textLength="10.0386" x="140.4954" y="113.3745">S&#237;</text><text fill="#000000" font-family="sans-serif" font-size="11" lengthAdjust="spacing" textLength="14.9585" x="293.7776" y="113.3745">No</text><rect fill="#F1F1F1" height="33.9688" rx="12.5" ry="12.5" style="stroke:#181818;stroke-width:0.5;" width="173.8848" x="29.3545" y="137.9688"/><text fill="#000000" font-family="sans-serif" font-size="12" lengthAdjust="spacing" textLength="153.8848" x="39.3545" y="159.1074">Mostrar pantalla principal</text><rect fill="#F1F1F1" height="33.9688" rx="12.5" ry="12.5" style="stroke:#181818;stroke-width:0.5;" width="210.5938" x="11" y="191.9375"/><text fill="#000000" font-family="sans-serif" font-size="12" lengthAdjust="spacing" textLength="190.5938" x="21" y="213.0762">Cargar contenido recomendado</text><rect fill="#F1F1F1" height="33.9688" rx="12.5" ry="12.5" style="stroke:#181818;stroke-width:0.5;" width="172.8418" x="241.5938" y="137.9688"/><text fill="#000000" font-family="sans-serif" font-size="12" lengthAdjust="spacing" textLength="152.8418" x="251.5938" y="159.1074">Mostrar mensaje de error</text><ellipse cx="328.0146" cy="202.9375" fill="#FFFFFF" fill-opacity="0.00000" rx="11" ry="11" style="stroke:#222222;stroke-width:1;"/><ellipse cx="328.0146" cy="202.9375" fill="#222222" rx="6" ry="6" style="stroke:#222222;stroke-width:1;"/><rect fill="#F1F1F1" height="33.9688" rx="12.5" ry="12.5" style="stroke:#181818;stroke-width:0.5;" width="152.8262" x="145.7427" y="245.9063"/><text fill="#000000" font-family="sans-serif" font-size="12" lengthAdjust="spacing" textLength="132.8262" x="155.7427" y="267.0449">Seleccionar contenido</text><rect fill="#F1F1F1" height="33.9688" rx="12.5" ry="12.5" style="stroke:#181818;stroke-width:0.5;" width="103.8711" x="170.2202" y="299.875"/><text fill="#000000" font-family="sans-serif" font-size="12" lengthAdjust="spacing" textLength="83.8711" x="180.2202" y="321.0137">Ver contenido</text><rect fill="#F1F1F1" height="33.9688" rx="12.5" ry="12.5" style="stroke:#181818;stroke-width:0.5;" width="132.084" x="156.1138" y="402.2461"/><text fill="#000000" font-family="sans-serif" font-size="12" lengthAdjust="spacing" textLength="112.084" x="166.1138" y="423.3848">Registrar progreso</text><rect fill="#F1F1F1" height="33.9688" rx="12.5" ry="12.5" style="stroke:#181818;stroke-width:0.5;" width="258.4824" x="92.9146" y="471.2148"/><text fill="#000000" font-family="sans-serif" font-size="12" lengthAdjust="spacing" textLength="238.4824" x="102.9146" y="492.3535">Actualizar recomendaci&#243;n de contenido</text><polygon fill="#F1F1F1" points="163.5195,353.8438,280.792,353.8438,292.792,365.8438,280.792,377.8438,163.5195,377.8438,151.5195,365.8438,163.5195,353.8438" style="stroke:#181818;stroke-width:0.5;"/><text fill="#000000" font-family="sans-serif" font-size="11" lengthAdjust="spacing" textLength="10.0386" x="226.1558" y="388.0542">S&#237;</text><text fill="#000000" font-family="sans-serif" font-size="11" lengthAdjust="spacing" textLength="117.2725" x="163.5195" y="369.6519">Completar actividad?</text><polygon fill="#F1F1F1" points="222.1558,525.1836,234.1558,537.1836,222.1558,549.1836,210.1558,537.1836,222.1558,525.1836" style="stroke:#181818;stroke-width:0.5;"/><rect fill="#F1F1F1" height="33.9688" rx="12.5" ry="12.5" style="stroke:#181818;stroke-width:0.5;" width="145.9355" x="149.188" y="569.1836"/><text fill="#000000" font-family="sans-serif" font-size="12" lengthAdjust="spacing" textLength="125.9355" x="159.188" y="590.3223">Usuario cierra sesi&#243;n</text><ellipse cx="222.1558" cy="634.1523" fill="#FFFFFF" fill-opacity="0.00000" rx="11" ry="11" style="stroke:#222222;stroke-width:1;"/><ellipse cx="222.1558" cy="634.1523" fill="#222222" rx="6" ry="6" style="stroke:#222222;stroke-width:1;"/><line style="stroke:#181818;stroke-width:1;" x1="222.1558" x2="222.1558" y1="30" y2="50"/><polygon fill="#181818" points="218.1558,40,222.1558,50,226.1558,40,222.1558,44" style="stroke:#181818;stroke-width:1;"/><line style="stroke:#181818;stroke-width:1;" x1="116.2969" x2="116.2969" y1="171.9375" y2="191.9375"/><polygon fill="#181818" points="112.2969,181.9375,116.2969,191.9375,120.2969,181.9375,116.2969,185.9375" style="stroke:#181818;stroke-width:1;"/><line style="stroke:#181818;stroke-width:1;" x1="328.0146" x2="328.0146" y1="171.9375" y2="191.9375"/><polygon fill="#181818" points="324.0146,181.9375,328.0146,191.9375,332.0146,181.9375,328.0146,185.9375" style="stroke:#181818;stroke-width:1;"/><line style="stroke:#181818;stroke-width:1;" x1="150.5339" x2="116.2969" y1="115.9688" y2="115.9688"/><line style="stroke:#181818;stroke-width:1;" x1="116.2969" x2="116.2969" y1="115.9688" y2="137.9688"/><polygon fill="#181818" points="112.2969,127.9688,116.2969,137.9688,120.2969,127.9688,116.2969,131.9688" style="stroke:#181818;stroke-width:1;"/><line style="stroke:#181818;stroke-width:1;" x1="293.7776" x2="328.0146" y1="115.9688" y2="115.9688"/><line style="stroke:#181818;stroke-width:1;" x1="328.0146" x2="328.0146" y1="115.9688" y2="137.9688"/><polygon fill="#181818" points="324.0146,127.9688,328.0146,137.9688,332.0146,127.9688,328.0146,131.9688" style="stroke:#181818;stroke-width:1;"/><line style="stroke:#181818;stroke-width:1;" x1="116.2969" x2="116.2969" y1="225.9063" y2="230.9063"/><line style="stroke:#181818;stroke-width:1;" x1="116.2969" x2="222.1558" y1="230.9063" y2="230.9063"/><line style="stroke:#181818;stroke-width:1;" x1="222.1558" x2="222.1558" y1="230.9063" y2="245.9063"/><polygon fill="#181818" points="218.1558,235.9063,222.1558,245.9063,226.1558,235.9063,222.1558,239.9063" style="stroke:#181818;stroke-width:1;"/><line style="stroke:#181818;stroke-width:1;" x1="222.1558" x2="222.1558" y1="83.9688" y2="103.9688"/><polygon fill="#181818" points="218.1558,93.9688,222.1558,103.9688,226.1558,93.9688,222.1558,97.9688" style="stroke:#181818;stroke-width:1;"/><line style="stroke:#181818;stroke-width:1;" x1="222.1558" x2="222.1558" y1="279.875" y2="299.875"/><polygon fill="#181818" points="218.1558,289.875,222.1558,299.875,226.1558,289.875,222.1558,293.875" style="stroke:#181818;stroke-width:1;"/><line style="stroke:#181818;stroke-width:1;" x1="222.1558" x2="222.1558" y1="436.2148" y2="471.2148"/><polygon fill="#181818" points="218.1558,461.2148,222.1558,471.2148,226.1558,461.2148,222.1558,465.2148" style="stroke:#181818;stroke-width:1;"/><line style="stroke:#181818;stroke-width:1;" x1="222.1558" x2="222.1558" y1="377.8438" y2="402.2461"/><polygon fill="#181818" points="218.1558,392.2461,222.1558,402.2461,226.1558,392.2461,222.1558,396.2461" style="stroke:#181818;stroke-width:1;"/><line style="stroke:#181818;stroke-width:1;" x1="292.792" x2="361.397" y1="365.8438" y2="365.8438"/><polygon fill="#181818" points="357.397,443.7148,361.397,453.7148,365.397,443.7148,361.397,447.7148" style="stroke:#181818;stroke-width:1;"/><line style="stroke:#181818;stroke-width:1;" x1="361.397" x2="361.397" y1="365.8438" y2="537.1836"/><line style="stroke:#181818;stroke-width:1;" x1="361.397" x2="234.1558" y1="537.1836" y2="537.1836"/><polygon fill="#181818" points="244.1558,533.1836,234.1558,537.1836,244.1558,541.1836,240.1558,537.1836" style="stroke:#181818;stroke-width:1;"/><line style="stroke:#181818;stroke-width:1;" x1="222.1558" x2="222.1558" y1="505.1836" y2="525.1836"/><polygon fill="#181818" points="218.1558,515.1836,222.1558,525.1836,226.1558,515.1836,222.1558,519.1836" style="stroke:#181818;stroke-width:1;"/><line style="stroke:#181818;stroke-width:1;" x1="222.1558" x2="222.1558" y1="333.8438" y2="353.8438"/><polygon fill="#181818" points="218.1558,343.8438,222.1558,353.8438,226.1558,343.8438,222.1558,347.8438" style="stroke:#181818;stroke-width:1;"/><line style="stroke:#181818;stroke-width:1;" x1="222.1558" x2="222.1558" y1="549.1836" y2="569.1836"/><polygon fill="#181818" points="218.1558,559.1836,222.1558,569.1836,226.1558,559.1836,222.1558,563.1836" style="stroke:#181818;stroke-width:1;"/><line style="stroke:#181818;stroke-width:1;" x1="222.1558" x2="222.1558" y1="603.1523" y2="623.1523"/><polygon fill="#181818" points="218.1558,613.1523,222.1558,623.1523,226.1558,613.1523,222.1558,617.1523" style="stroke:#181818;stroke-width:1;"/><!--SRC=[PP2nRGCn34LxJS7olC9T4GIkao96qXCIVM4WYm8fk_0s6S2LHxZ5GXbnS4PAyeEVxtzhg2s4yTsEg2p0XICZ61alrp85tiEmLKfKV9t9uBHyPqveJnjedrHWs2sNJG0ONyIQeaB5qZ1dXAhiHnNprEKjwkngbDAeS19GYdAWaZ3952WRmV0g3qwk6duH909I5Uq-rgG6l-AzG-yeKumiPMqyXV637kPR1ZdKJ1uMC3O-UOBqBy4RpVoRGMLMChcHFyTsnCndt_ynnzvE1rkzkLFTgupirAigE_eF]--></g></svg>