<svg xmlns="http://www.w3.org/2000/svg" xmlns:xlink="http://www.w3.org/1999/xlink" contentStyleType="text/css" data-diagram-type="CLASS" height="473px" preserveAspectRatio="none" style="width:407px;height:473px;background:#FFFFFF;" version="1.1" viewBox="0 0 407 473" width="407px" zoomAndPan="magnify"><defs/><g><!--class Usuario--><g id="elem_Usuario"><rect codeLine="1" fill="#F1F1F1" height="129.4844" id="Usuario" rx="2.5" ry="2.5" style="stroke:#181818;stroke-width:0.5;" width="173.2188" x="7" y="7"/><ellipse cx="62.7573" cy="23" fill="#ADD1B2" rx="11" ry="11" style="stroke:#181818;stroke-width:1;"/><path d="M65.7261,28.6406 Q65.1479,28.9375 64.5073,29.0781 Q63.8667,29.2344 63.1636,29.2344 Q60.6636,29.2344 59.3354,27.5938 Q58.0229,25.9375 58.0229,22.8125 Q58.0229,19.6875 59.3354,18.0313 Q60.6636,16.375 63.1636,16.375 Q63.8667,16.375 64.5073,16.5313 Q65.1636,16.6875 65.7261,16.9844 L65.7261,19.7031 Q65.1011,19.125 64.5073,18.8594 Q63.9136,18.5781 63.2886,18.5781 Q61.9448,18.5781 61.2573,19.6563 Q60.5698,20.7188 60.5698,22.8125 Q60.5698,24.9063 61.2573,25.9844 Q61.9448,27.0469 63.2886,27.0469 Q63.9136,27.0469 64.5073,26.7813 Q65.1011,26.5 65.7261,25.9219 L65.7261,28.6406 Z " fill="#000000"/><text fill="#000000" font-family="sans-serif" font-size="14" lengthAdjust="spacing" textLength="53.2041" x="83.2573" y="27.8467">Usuario</text><line style="stroke:#181818;stroke-width:0.5;" x1="8" x2="179.2188" y1="39" y2="39"/><ellipse cx="18" cy="52.6484" fill="#FFFFFF" fill-opacity="0.00000" rx="3" ry="3" style="stroke:#038048;stroke-width:1;"/><text fill="#000000" font-family="sans-serif" font-size="14" lengthAdjust="spacing" textLength="105.2803" x="27" y="55.9951">nombre: String</text><ellipse cx="18" cy="68.9453" fill="#FFFFFF" fill-opacity="0.00000" rx="3" ry="3" style="stroke:#038048;stroke-width:1;"/><text fill="#000000" font-family="sans-serif" font-size="14" lengthAdjust="spacing" textLength="89.5576" x="27" y="72.292">email: String</text><line style="stroke:#181818;stroke-width:0.5;" x1="8" x2="179.2188" y1="79.5938" y2="79.5938"/><ellipse cx="18" cy="93.2422" fill="#84BE84" rx="3" ry="3" style="stroke:#038048;stroke-width:1;"/><text fill="#000000" font-family="sans-serif" font-size="14" lengthAdjust="spacing" textLength="99.6201" x="27" y="96.5889">iniciarSesion()</text><ellipse cx="18" cy="109.5391" fill="#84BE84" rx="3" ry="3" style="stroke:#038048;stroke-width:1;"/><text fill="#000000" font-family="sans-serif" font-size="14" lengthAdjust="spacing" textLength="105.1094" x="27" y="112.8857">verContenido()</text><ellipse cx="18" cy="125.8359" fill="#84BE84" rx="3" ry="3" style="stroke:#038048;stroke-width:1;"/><text fill="#000000" font-family="sans-serif" font-size="14" lengthAdjust="spacing" textLength="147.2188" x="27" y="129.1826">completarActividad()</text></g><!--class Administrador--><g id="elem_Administrador"><rect codeLine="9" fill="#F1F1F1" height="113.1875" id="Administrador" rx="2.5" ry="2.5" style="stroke:#181818;stroke-width:0.5;" width="185.1748" x="215.02" y="15.15"/><ellipse cx="254.3626" cy="31.15" fill="#ADD1B2" rx="11" ry="11" style="stroke:#181818;stroke-width:1;"/><path d="M257.3314,36.7906 Q256.7533,37.0875 256.1126,37.2281 Q255.472,37.3844 254.7689,37.3844 Q252.2689,37.3844 250.9408,35.7437 Q249.6283,34.0875 249.6283,30.9625 Q249.6283,27.8375 250.9408,26.1812 Q252.2689,24.525 254.7689,24.525 Q255.472,24.525 256.1126,24.6812 Q256.7689,24.8375 257.3314,25.1344 L257.3314,27.8531 Q256.7064,27.275 256.1126,27.0094 Q255.5189,26.7281 254.8939,26.7281 Q253.5501,26.7281 252.8626,27.8062 Q252.1751,28.8687 252.1751,30.9625 Q252.1751,33.0562 252.8626,34.1344 Q253.5501,35.1969 254.8939,35.1969 Q255.5189,35.1969 256.1126,34.9312 Q256.7064,34.65 257.3314,34.0719 L257.3314,36.7906 Z " fill="#000000"/><text fill="#000000" font-family="sans-serif" font-size="14" lengthAdjust="spacing" textLength="99.0801" x="273.7721" y="35.9967">Administrador</text><line style="stroke:#181818;stroke-width:0.5;" x1="216.02" x2="399.1948" y1="47.15" y2="47.15"/><ellipse cx="226.02" cy="60.7984" fill="#FFFFFF" fill-opacity="0.00000" rx="3" ry="3" style="stroke:#038048;stroke-width:1;"/><text fill="#000000" font-family="sans-serif" font-size="14" lengthAdjust="spacing" textLength="105.2803" x="235.02" y="64.1451">nombre: String</text><ellipse cx="226.02" cy="77.0953" fill="#FFFFFF" fill-opacity="0.00000" rx="3" ry="3" style="stroke:#038048;stroke-width:1;"/><text fill="#000000" font-family="sans-serif" font-size="14" lengthAdjust="spacing" textLength="89.5576" x="235.02" y="80.442">email: String</text><line style="stroke:#181818;stroke-width:0.5;" x1="216.02" x2="399.1948" y1="87.7437" y2="87.7437"/><ellipse cx="226.02" cy="101.3922" fill="#84BE84" rx="3" ry="3" style="stroke:#038048;stroke-width:1;"/><text fill="#000000" font-family="sans-serif" font-size="14" lengthAdjust="spacing" textLength="137.3682" x="235.02" y="104.7389">gestionarUsuarios()</text><ellipse cx="226.02" cy="117.6891" fill="#84BE84" rx="3" ry="3" style="stroke:#038048;stroke-width:1;"/><text fill="#000000" font-family="sans-serif" font-size="14" lengthAdjust="spacing" textLength="159.1748" x="235.02" y="121.0357">configurarPlataforma()</text></g><!--class PlataformaEduTechIA--><g id="elem_PlataformaEduTechIA"><rect codeLine="16" fill="#F1F1F1" height="113.1875" id="PlataformaEduTechIA" rx="2.5" ry="2.5" style="stroke:#181818;stroke-width:0.5;" width="224.085" x="88.57" y="196.48"/><ellipse cx="122.2863" cy="212.48" fill="#ADD1B2" rx="11" ry="11" style="stroke:#181818;stroke-width:1;"/><path d="M125.2551,218.1206 Q124.6769,218.4175 124.0363,218.5581 Q123.3957,218.7144 122.6926,218.7144 Q120.1926,218.7144 118.8644,217.0738 Q117.5519,215.4175 117.5519,212.2925 Q117.5519,209.1675 118.8644,207.5113 Q120.1926,205.855 122.6926,205.855 Q123.3957,205.855 124.0363,206.0113 Q124.6926,206.1675 125.2551,206.4644 L125.2551,209.1831 Q124.6301,208.605 124.0363,208.3394 Q123.4426,208.0581 122.8176,208.0581 Q121.4738,208.0581 120.7863,209.1363 Q120.0988,210.1988 120.0988,212.2925 Q120.0988,214.3863 120.7863,215.4644 Q121.4738,216.5269 122.8176,216.5269 Q123.4426,216.5269 124.0363,216.2613 Q124.6301,215.98 125.2551,215.4019 L125.2551,218.1206 Z " fill="#000000"/><text fill="#000000" font-family="sans-serif" font-size="14" lengthAdjust="spacing" textLength="150.4932" x="140.4455" y="217.3267">PlataformaEduTechIA</text><line style="stroke:#181818;stroke-width:0.5;" x1="89.57" x2="311.655" y1="228.48" y2="228.48"/><ellipse cx="99.57" cy="242.1284" fill="#FFFFFF" fill-opacity="0.00000" rx="3" ry="3" style="stroke:#038048;stroke-width:1;"/><text fill="#000000" font-family="sans-serif" font-size="14" lengthAdjust="spacing" textLength="169.4287" x="108.57" y="245.4751">usuarios: List&lt;Usuario&gt;</text><ellipse cx="99.57" cy="258.4253" fill="#FFFFFF" fill-opacity="0.00000" rx="3" ry="3" style="stroke:#038048;stroke-width:1;"/><text fill="#000000" font-family="sans-serif" font-size="14" lengthAdjust="spacing" textLength="198.085" x="108.57" y="261.772">contenido: List&lt;Contenido&gt;</text><line style="stroke:#181818;stroke-width:0.5;" x1="89.57" x2="311.655" y1="269.0738" y2="269.0738"/><ellipse cx="99.57" cy="282.7222" fill="#84BE84" rx="3" ry="3" style="stroke:#038048;stroke-width:1;"/><text fill="#000000" font-family="sans-serif" font-size="14" lengthAdjust="spacing" textLength="158.7988" x="108.57" y="286.0689">verificarCredenciales()</text><ellipse cx="99.57" cy="299.0191" fill="#84BE84" rx="3" ry="3" style="stroke:#038048;stroke-width:1;"/><text fill="#000000" font-family="sans-serif" font-size="14" lengthAdjust="spacing" textLength="167.4326" x="108.57" y="302.3657">recomendarContenido()</text></g><!--class Contenido--><g id="elem_Contenido"><rect codeLine="23" fill="#F1F1F1" height="96.8906" id="Contenido" rx="2.5" ry="2.5" style="stroke:#181818;stroke-width:0.5;" width="156.9971" x="122.11" y="369.67"/><ellipse cx="161.1696" cy="385.67" fill="#ADD1B2" rx="11" ry="11" style="stroke:#181818;stroke-width:1;"/><path d="M164.1384,391.3106 Q163.5602,391.6075 162.9196,391.7481 Q162.279,391.9044 161.5759,391.9044 Q159.0759,391.9044 157.7477,390.2638 Q156.4352,388.6075 156.4352,385.4825 Q156.4352,382.3575 157.7477,380.7013 Q159.0759,379.045 161.5759,379.045 Q162.279,379.045 162.9196,379.2013 Q163.5759,379.3575 164.1384,379.6544 L164.1384,382.3731 Q163.5134,381.795 162.9196,381.5294 Q162.3259,381.2481 161.7009,381.2481 Q160.3571,381.2481 159.6696,382.3263 Q158.9821,383.3888 158.9821,385.4825 Q158.9821,387.5763 159.6696,388.6544 Q160.3571,389.7169 161.7009,389.7169 Q162.3259,389.7169 162.9196,389.4513 Q163.5134,389.17 164.1384,388.5919 L164.1384,391.3106 Z " fill="#000000"/><text fill="#000000" font-family="sans-serif" font-size="14" lengthAdjust="spacing" textLength="71.5313" x="180.5162" y="390.5167">Contenido</text><line style="stroke:#181818;stroke-width:0.5;" x1="123.11" x2="278.1071" y1="401.67" y2="401.67"/><ellipse cx="133.11" cy="415.3184" fill="#FFFFFF" fill-opacity="0.00000" rx="3" ry="3" style="stroke:#038048;stroke-width:1;"/><text fill="#000000" font-family="sans-serif" font-size="14" lengthAdjust="spacing" textLength="87.1445" x="142.11" y="418.6651">titulo: String</text><ellipse cx="133.11" cy="431.6153" fill="#FFFFFF" fill-opacity="0.00000" rx="3" ry="3" style="stroke:#038048;stroke-width:1;"/><text fill="#000000" font-family="sans-serif" font-size="14" lengthAdjust="spacing" textLength="130.9971" x="142.11" y="434.962">descripcion: String</text><ellipse cx="133.11" cy="447.9122" fill="#FFFFFF" fill-opacity="0.00000" rx="3" ry="3" style="stroke:#038048;stroke-width:1;"/><text fill="#000000" font-family="sans-serif" font-size="14" lengthAdjust="spacing" textLength="77.7793" x="142.11" y="451.2589">tipo: String</text><line style="stroke:#181818;stroke-width:0.5;" x1="123.11" x2="278.1071" y1="458.5606" y2="458.5606"/></g><!--link Usuario to PlataformaEduTechIA--><g id="link_Usuario_PlataformaEduTechIA"><path codeLine="29" d="M131.94,136.98 C143.45,156.27 155.99,177.28 167.16,196.01 " fill="#FFFFFF" fill-opacity="0.00000" id="Usuario-PlataformaEduTechIA" style="stroke:#181818;stroke-width:1;"/></g><!--link Administrador to PlataformaEduTechIA--><g id="link_Administrador_PlataformaEduTechIA"><path codeLine="30" d="M274.34,128.5 C261.52,149.99 246.88,174.53 234.04,196.04 " fill="#FFFFFF" fill-opacity="0.00000" id="Administrador-PlataformaEduTechIA" style="stroke:#181818;stroke-width:1;"/></g><!--link PlataformaEduTechIA to Contenido--><g id="link_PlataformaEduTechIA_Contenido"><path codeLine="31" d="M200.61,309.73 C200.61,329.1 200.61,350.65 200.61,369.32 " fill="#FFFFFF" fill-opacity="0.00000" id="PlataformaEduTechIA-Contenido" style="stroke:#181818;stroke-width:1;"/></g><!--SRC=[ZP7DIWCn4CVl-nGvAj8NA59OYWV1Wr1zW36PNGUIoJAPz2A-krCttMwXWjTVXlzNV8HIt7kf89JTL-VS0-Vq8RXr1nNYyKGm0SKr82PF80SibFdk_eIEAFlCYamXpyJdD4LKaDuh7Ib0CFxTTVxNiW_9L8eAX2p_DXwng5c2jCJbRCK3ZLL0NYCe35aIhCqkz2dKD_IVp_riMPlCrhrObiUckckQSvlsjhJRjReqa0VP2mPaMoDY2oDepP43N0soP5dWd419QyphZW6B5vgyzLnZfUboPchdFzjiRjNhhlVzu-ZMBdQwHFm1]--></g></svg>