<svg xmlns="http://www.w3.org/2000/svg" xmlns:xlink="http://www.w3.org/1999/xlink" contentStyleType="text/css" data-diagram-type="DESCRIPTION" height="429px" preserveAspectRatio="none" style="width:1345px;height:429px;background:#FFFFFF;" version="1.1" viewBox="0 0 1345 429" width="1345px" zoomAndPan="magnify"><defs/><g><!--entity UI--><g id="elem_UI"><rect fill="#F1F1F1" height="46.2969" rx="2.5" ry="2.5" style="stroke:#181818;stroke-width:0.5;" width="173.3213" x="508.48" y="7"/><rect fill="#F1F1F1" height="10" style="stroke:#181818;stroke-width:0.5;" width="15" x="661.8013" y="12"/><rect fill="#F1F1F1" height="2" style="stroke:#181818;stroke-width:0.5;" width="4" x="659.8013" y="14"/><rect fill="#F1F1F1" height="2" style="stroke:#181818;stroke-width:0.5;" width="4" x="659.8013" y="18"/><text fill="#000000" font-family="sans-serif" font-size="14" lengthAdjust="spacing" textLength="133.3213" x="523.48" y="39.9951">Interfaz de Usuario</text></g><!--entity Auth--><g id="elem_Auth"><rect fill="#F1F1F1" height="46.2969" rx="2.5" ry="2.5" style="stroke:#181818;stroke-width:0.5;" width="209.0732" x="44.6" y="130.3"/><rect fill="#F1F1F1" height="10" style="stroke:#181818;stroke-width:0.5;" width="15" x="233.6732" y="135.3"/><rect fill="#F1F1F1" height="2" style="stroke:#181818;stroke-width:0.5;" width="4" x="231.6732" y="137.3"/><rect fill="#F1F1F1" height="2" style="stroke:#181818;stroke-width:0.5;" width="4" x="231.6732" y="141.3"/><text fill="#000000" font-family="sans-serif" font-size="14" lengthAdjust="spacing" textLength="169.0732" x="59.6" y="163.2951">Gestor de Autenticaci&#243;n</text></g><!--entity Recommender--><g id="elem_Recommender"><rect fill="#F1F1F1" height="46.2969" rx="2.5" ry="2.5" style="stroke:#181818;stroke-width:0.5;" width="229.4785" x="702.4" y="376.89"/><rect fill="#F1F1F1" height="10" style="stroke:#181818;stroke-width:0.5;" width="15" x="911.8785" y="381.89"/><rect fill="#F1F1F1" height="2" style="stroke:#181818;stroke-width:0.5;" width="4" x="909.8785" y="383.89"/><rect fill="#F1F1F1" height="2" style="stroke:#181818;stroke-width:0.5;" width="4" x="909.8785" y="387.89"/><text fill="#000000" font-family="sans-serif" font-size="14" lengthAdjust="spacing" textLength="189.4785" x="717.4" y="409.8851">M&#243;dulo de Recomendaci&#243;n</text></g><!--entity DB--><g id="elem_DB"><rect fill="#F1F1F1" height="46.2969" rx="2.5" ry="2.5" style="stroke:#181818;stroke-width:0.5;" width="141.1992" x="408.54" y="253.6"/><rect fill="#F1F1F1" height="10" style="stroke:#181818;stroke-width:0.5;" width="15" x="529.7392" y="258.6"/><rect fill="#F1F1F1" height="2" style="stroke:#181818;stroke-width:0.5;" width="4" x="527.7392" y="260.6"/><rect fill="#F1F1F1" height="2" style="stroke:#181818;stroke-width:0.5;" width="4" x="527.7392" y="264.6"/><text fill="#000000" font-family="sans-serif" font-size="14" lengthAdjust="spacing" textLength="101.1992" x="423.54" y="286.5951">Base de Datos</text></g><!--link UI to Auth--><g id="link_UI_Auth"><path d="M508.11,32.78 C356.29,36.52 56.08,48.31 24.14,83.3 C6,103.17 20.1009,116.4377 48.8109,127.6477 " fill="#FFFFFF" fill-opacity="0.00000" id="UI-to-Auth" style="stroke:#181818;stroke-width:1;"/><polygon fill="#181818" points="54.4,129.83,47.4713,122.8305,49.7424,128.0114,44.5615,130.2826,54.4,129.83" style="stroke:#181818;stroke-width:1;"/><text fill="#000000" font-family="sans-serif" font-size="13" lengthAdjust="spacing" textLength="156.7681" x="25.14" y="96.3669">Solicitar inicio de sesi&#243;n</text></g><!--link Auth to UI--><g id="link_Auth_UI"><path d="M166.39,129.92 C179.79,114.15 199.8,94.05 222.14,83.3 C271.19,59.69 408.2394,45.2116 502.2494,37.6416 " fill="#FFFFFF" fill-opacity="0.00000" id="Auth-to-UI" style="stroke:#181818;stroke-width:1;"/><polygon fill="#181818" points="508.23,37.16,498.938,33.8953,503.2461,37.5613,499.5801,41.8695,508.23,37.16" style="stroke:#181818;stroke-width:1;"/><text fill="#000000" font-family="sans-serif" font-size="13" lengthAdjust="spacing" textLength="210.939" x="223.14" y="96.3669">Confirmaci&#243;n de inicio de sesi&#243;n</text></g><!--link Auth to DB--><g id="link_Auth_DB"><path d="M96.15,176.96 C73.42,189.75 55.14,206.57 70.14,223.6 C92.08,248.51 290.982,264.3214 402.172,271.3514 " fill="#FFFFFF" fill-opacity="0.00000" id="Auth-to-DB" style="stroke:#181818;stroke-width:1;"/><polygon fill="#181818" points="408.16,271.73,399.4303,267.1701,403.17,271.4145,398.9255,275.1541,408.16,271.73" style="stroke:#181818;stroke-width:1;"/><text fill="#000000" font-family="sans-serif" font-size="13" lengthAdjust="spacing" textLength="140.7148" x="71.14" y="219.6669">Verificar credenciales</text></g><!--link DB to Auth--><g id="link_DB_Auth"><path d="M408.26,266.3 C362.4,258.55 302.14,245.24 252.14,223.6 C224.47,211.62 201.0204,195.7122 181.1304,180.4522 " fill="#FFFFFF" fill-opacity="0.00000" id="DB-to-Auth" style="stroke:#181818;stroke-width:1;"/><polygon fill="#181818" points="176.37,176.8,181.0757,185.4519,180.337,179.8435,185.9454,179.1048,176.37,176.8" style="stroke:#181818;stroke-width:1;"/><text fill="#000000" font-family="sans-serif" font-size="13" lengthAdjust="spacing" textLength="180.959" x="253.14" y="219.6669">Respuesta de autenticaci&#243;n</text></g><!--link UI to Recommender--><g id="link_UI_Recommender"><path d="M682.13,35.4 C748.92,43.79 837.09,67.08 882.14,130.3 C906.72,164.8 919.34,210.31 860.14,346.89 C855.47,357.66 851.8444,363.4575 844.3344,372.0275 " fill="#FFFFFF" fill-opacity="0.00000" id="UI-to-Recommender" style="stroke:#181818;stroke-width:1;"/><polygon fill="#181818" points="840.38,376.54,849.3199,372.4075,843.6753,372.7796,843.3032,367.135,840.38,376.54" style="stroke:#181818;stroke-width:1;"/><text fill="#000000" font-family="sans-serif" font-size="13" lengthAdjust="spacing" textLength="215.1221" x="902.14" y="219.6669">Solicitar contenido recomendado</text></g><!--link Recommender to UI--><g id="link_Recommender_UI"><path d="M929.09,376.44 C1038.62,348.76 1181.5,294.41 1126.14,206.6 C1058.36,99.09 988.88,122.95 868.14,83.3 C807.4,63.35 742.3335,50.9705 687.9635,42.8105 " fill="#FFFFFF" fill-opacity="0.00000" id="Recommender-to-UI" style="stroke:#181818;stroke-width:1;"/><polygon fill="#181818" points="682.03,41.92,690.3366,47.2115,686.9746,42.6621,691.524,39.3001,682.03,41.92" style="stroke:#181818;stroke-width:1;"/><text fill="#000000" font-family="sans-serif" font-size="13" lengthAdjust="spacing" textLength="203.5947" x="1134.14" y="219.6669">Enviar contenido recomendado</text></g><!--link Recommender to DB--><g id="link_Recommender_DB"><path d="M754.12,376.43 C693.52,354.68 608.0876,324.0159 547.5676,302.3059 " fill="#FFFFFF" fill-opacity="0.00000" id="Recommender-to-DB" style="stroke:#181818;stroke-width:1;"/><polygon fill="#181818" points="541.92,300.28,549.0408,307.084,546.6263,301.9683,551.7421,299.5538,541.92,300.28" style="stroke:#181818;stroke-width:1;"/><text fill="#000000" font-family="sans-serif" font-size="13" lengthAdjust="spacing" textLength="182.146" x="669.14" y="342.9569">Obtener historial de usuario</text></g><!--link DB to Recommender--><g id="link_DB_Recommender"><path d="M486.73,300.3 C493.16,315.86 503.95,335.71 520.14,346.89 C549.48,367.17 625.7598,379.9403 696.2798,388.1003 " fill="#FFFFFF" fill-opacity="0.00000" id="DB-to-Recommender" style="stroke:#181818;stroke-width:1;"/><polygon fill="#181818" points="702.24,388.79,693.7594,383.782,697.2731,388.2153,692.8399,391.729,702.24,388.79" style="stroke:#181818;stroke-width:1;"/><text fill="#000000" font-family="sans-serif" font-size="13" lengthAdjust="spacing" textLength="97.4111" x="521.14" y="342.9569">Enviar historial</text></g><!--link UI to DB--><g id="link_UI_DB"><path d="M558.36,53.74 C533.46,71.26 502.42,97.97 487.14,130.3 C468.23,170.31 470.6429,217.6418 474.5729,247.3418 " fill="#FFFFFF" fill-opacity="0.00000" id="UI-to-DB" style="stroke:#181818;stroke-width:1;"/><polygon fill="#181818" points="475.36,253.29,478.1448,243.8431,474.7041,248.3332,470.2139,244.8925,475.36,253.29" style="stroke:#181818;stroke-width:1;"/><text fill="#000000" font-family="sans-serif" font-size="13" lengthAdjust="spacing" textLength="199.3037" x="488.14" y="158.0169">Guardar progreso de actividad</text></g><!--link DB to UI--><g id="link_DB_UI"><path d="M550.23,263.19 C599.31,250.42 661.11,225.26 692.14,176.6 C720.2,132.58 671.5789,85.6381 633.4889,57.2181 " fill="#FFFFFF" fill-opacity="0.00000" id="DB-to-UI" style="stroke:#181818;stroke-width:1;"/><polygon fill="#181818" points="628.68,53.63,633.5013,62.2181,632.6874,56.6201,638.2854,55.8062,628.68,53.63" style="stroke:#181818;stroke-width:1;"/><text fill="#000000" font-family="sans-serif" font-size="13" lengthAdjust="spacing" textLength="173.126" x="700.14" y="158.0169">Confirmaci&#243;n de guardado</text></g><!--SRC=[RP4nRiCm34LtduB8dWjaA53NHU2XA930tLc9JWWueY796Ngj724NAwNKZOnaCxuU-V-dZPn6SUGYh5eNoVVu0vQW2nDwbXLWWAwjp9tQKeZY4_CwHLNOeE7hnMLKfMC9VrmlTXeaqJjIdPmjw2mbZNmvL6EWDD5Wb931fgwgheNr-YKxm0RsCh3XY1xOwKTs21JIwYeZYMrg9R_8SwyXFHXFbfnX72XK-bQisr4O9os6QGykUjtNQO8Dl8dhsPzkRub-z9-Z5lKMYOteeHrR0J_Vn4fLql_XFx-LLE78wUYQFFbCjtypLrZQlBipOp7mi3Ut-AEU9vdpvmHRzRAAZbuEda8kYYRocPMT8po_p26FMla5]--></g></svg>