<svg xmlns="http://www.w3.org/2000/svg" xmlns:xlink="http://www.w3.org/1999/xlink" contentStyleType="text/css" data-diagram-type="DESCRIPTION" height="439px" preserveAspectRatio="none" style="width:1102px;height:439px;background:#FFFFFF;" version="1.1" viewBox="0 0 1102 439" width="1102px" zoomAndPan="magnify"><defs/><g><!--entity User--><g id="elem_User"><polygon fill="#F1F1F1" points="473.47,16,483.47,6,566.6741,6,566.6741,42.2969,556.6741,52.2969,473.47,52.2969,473.47,16" style="stroke:#181818;stroke-width:0.5;"/><line style="stroke:#181818;stroke-width:0.5;" x1="556.6741" x2="566.6741" y1="16" y2="6"/><line style="stroke:#181818;stroke-width:0.5;" x1="473.47" x2="556.6741" y1="16" y2="16"/><line style="stroke:#181818;stroke-width:0.5;" x1="556.6741" x2="556.6741" y1="16" y2="52.2969"/><text fill="#000000" font-family="sans-serif" font-size="14" lengthAdjust="spacing" textLength="53.2041" x="488.47" y="38.9951">Usuario</text></g><!--entity WebServer--><g id="elem_WebServer"><polygon fill="#F1F1F1" points="452.85,139.3,462.85,129.3,587.2816,129.3,587.2816,165.5969,577.2816,175.5969,452.85,175.5969,452.85,139.3" style="stroke:#181818;stroke-width:0.5;"/><line style="stroke:#181818;stroke-width:0.5;" x1="577.2816" x2="587.2816" y1="139.3" y2="129.3"/><line style="stroke:#181818;stroke-width:0.5;" x1="452.85" x2="577.2816" y1="139.3" y2="139.3"/><line style="stroke:#181818;stroke-width:0.5;" x1="577.2816" x2="577.2816" y1="139.3" y2="175.5969"/><text fill="#000000" font-family="sans-serif" font-size="14" lengthAdjust="spacing" textLength="94.4316" x="467.85" y="162.2951">Servidor Web</text></g><!--entity AppServer--><g id="elem_AppServer"><polygon fill="#F1F1F1" points="413.82,262.6,423.82,252.6,626.3112,252.6,626.3112,288.8969,616.3112,298.8969,413.82,298.8969,413.82,262.6" style="stroke:#181818;stroke-width:0.5;"/><line style="stroke:#181818;stroke-width:0.5;" x1="616.3112" x2="626.3112" y1="262.6" y2="252.6"/><line style="stroke:#181818;stroke-width:0.5;" x1="413.82" x2="616.3112" y1="262.6" y2="262.6"/><line style="stroke:#181818;stroke-width:0.5;" x1="616.3112" x2="616.3112" y1="262.6" y2="298.8969"/><text fill="#000000" font-family="sans-serif" font-size="14" lengthAdjust="spacing" textLength="172.4912" x="428.82" y="285.5951">Servidor de Aplicaciones</text></g><!--entity DB--><g id="elem_DB"><polygon fill="#F1F1F1" points="449.47,385.89,459.47,375.89,590.6692,375.89,590.6692,412.1869,580.6692,422.1869,449.47,422.1869,449.47,385.89" style="stroke:#181818;stroke-width:0.5;"/><line style="stroke:#181818;stroke-width:0.5;" x1="580.6692" x2="590.6692" y1="385.89" y2="375.89"/><line style="stroke:#181818;stroke-width:0.5;" x1="449.47" x2="580.6692" y1="385.89" y2="385.89"/><line style="stroke:#181818;stroke-width:0.5;" x1="580.6692" x2="580.6692" y1="385.89" y2="422.1869"/><text fill="#000000" font-family="sans-serif" font-size="14" lengthAdjust="spacing" textLength="101.1992" x="464.47" y="408.8851">Base de Datos</text></g><!--link User to WebServer--><g id="link_User_WebServer"><path d="M473.07,32.31 C365.68,37.72 109.59,53.54 84.07,82.3 C34.05,138.65 312.0706,149.1461 446.5106,151.0261 " fill="#FFFFFF" fill-opacity="0.00000" id="User-to-WebServer" style="stroke:#181818;stroke-width:1;"/><polygon fill="#181818" points="452.51,151.11,443.5668,146.9845,447.5105,151.0401,443.4549,154.9838,452.51,151.11" style="stroke:#181818;stroke-width:1;"/><text fill="#000000" font-family="sans-serif" font-size="13" lengthAdjust="spacing" textLength="150.7759" x="85.07" y="95.3669">Accede a la plataforma</text></g><!--link WebServer to User--><g id="link_WebServer_User"><path d="M544.88,128.87 C556.08,115.86 565.68,98.85 560.07,82.3 C556.4,71.49 553.3044,65.8014 546.2544,57.2414 " fill="#FFFFFF" fill-opacity="0.00000" id="WebServer-to-User" style="stroke:#181818;stroke-width:1;"/><polygon fill="#181818" points="542.44,52.61,545.074,62.1001,545.6187,56.4695,551.2493,57.0142,542.44,52.61" style="stroke:#181818;stroke-width:1;"/><text fill="#000000" font-family="sans-serif" font-size="13" lengthAdjust="spacing" textLength="116.6001" x="562.07" y="95.3669">Acceso concedido</text></g><!--link User to WebServer--><g id="link_User_WebServer"><path d="M473.21,33.33 C409.42,38.75 300.38,52.24 276.07,82.3 C271.32,88.17 271.32,93.42 276.07,99.3 C297.89,126.29 382.0396,139.3244 446.3896,145.7444 " fill="#FFFFFF" fill-opacity="0.00000" id="User-to-WebServer-1" style="stroke:#181818;stroke-width:1;"/><polygon fill="#181818" points="452.36,146.34,443.8016,141.4663,447.3847,145.8436,443.0074,149.4268,452.36,146.34" style="stroke:#181818;stroke-width:1;"/><text fill="#000000" font-family="sans-serif" font-size="13" lengthAdjust="spacing" textLength="121.2212" x="277.07" y="95.3669">Solicitar contenido</text></g><!--link WebServer to User--><g id="link_WebServer_User"><path d="M587.66,146.37 C645.94,139.22 716.44,122.24 687.07,82.3 C659.72,45.11 611.9509,34.1682 572.8009,31.0382 " fill="#FFFFFF" fill-opacity="0.00000" id="WebServer-to-User-1" style="stroke:#181818;stroke-width:1;"/><polygon fill="#181818" points="566.82,30.56,575.4726,35.2645,571.8041,30.9585,576.1102,27.29,566.82,30.56" style="stroke:#181818;stroke-width:1;"/><text fill="#000000" font-family="sans-serif" font-size="13" lengthAdjust="spacing" textLength="118.3203" x="694.07" y="95.3669">Mostrar contenido</text></g><!--link User to WebServer--><g id="link_User_WebServer"><path d="M473.26,47.81 C458.34,55.93 443.52,67.19 435.07,82.3 C424.43,101.31 435.081,114.1976 455.891,125.9076 " fill="#FFFFFF" fill-opacity="0.00000" id="User-to-WebServer-2" style="stroke:#181818;stroke-width:1;"/><polygon fill="#181818" points="461.12,128.85,455.2381,120.9504,456.7625,126.398,451.3149,127.9224,461.12,128.85" style="stroke:#181818;stroke-width:1;"/><text fill="#000000" font-family="sans-serif" font-size="13" lengthAdjust="spacing" textLength="115.1909" x="436.07" y="95.3669">Guardar progreso</text></g><!--link WebServer to User--><g id="link_WebServer_User"><path d="M587.64,146.91 C685.73,138.99 852.62,119.78 821.07,82.3 C789.14,44.36 649.2459,34.2407 572.9159,31.4307 " fill="#FFFFFF" fill-opacity="0.00000" id="WebServer-to-User-2" style="stroke:#181818;stroke-width:1;"/><polygon fill="#181818" points="566.92,31.21,575.7668,35.5384,571.9166,31.3939,576.0611,27.5438,566.92,31.21" style="stroke:#181818;stroke-width:1;"/><text fill="#000000" font-family="sans-serif" font-size="13" lengthAdjust="spacing" textLength="123.8174" x="825.07" y="95.3669">Progreso guardado</text></g><!--link WebServer to AppServer--><g id="link_WebServer_AppServer"><path d="M452.59,155.43 C320.94,159.99 40.12,173.41 11.07,205.6 C6,211.2 6,216.99 11.07,222.6 C37.5,251.88 266.3048,265.389 407.5948,271.069 " fill="#FFFFFF" fill-opacity="0.00000" id="WebServer-to-AppServer" style="stroke:#181818;stroke-width:1;"/><polygon fill="#181818" points="413.59,271.31,404.7579,266.9517,408.594,271.1092,404.4366,274.9453,413.59,271.31" style="stroke:#181818;stroke-width:1;"/><text fill="#000000" font-family="sans-serif" font-size="13" lengthAdjust="spacing" textLength="168.6064" x="12.07" y="218.6669">Solicitud de autenticaci&#243;n</text></g><!--link AppServer to WebServer--><g id="link_AppServer_WebServer"><path d="M547.34,252.39 C559.66,239.45 570.22,222.44 564.07,205.6 C560.08,194.69 556.712,188.9613 549.122,180.5213 " fill="#FFFFFF" fill-opacity="0.00000" id="AppServer-to-WebServer" style="stroke:#181818;stroke-width:1;"/><polygon fill="#181818" points="545.11,176.06,548.1538,185.4267,548.4534,179.7778,554.1023,180.0773,545.11,176.06" style="stroke:#181818;stroke-width:1;"/><text fill="#000000" font-family="sans-serif" font-size="13" lengthAdjust="spacing" textLength="210.939" x="566.07" y="218.6669">Confirmaci&#243;n de inicio de sesi&#243;n</text></g><!--link WebServer to AppServer--><g id="link_WebServer_AppServer"><path d="M452.66,155.47 C373.73,159.43 250.06,171.11 221.07,205.6 C193.68,238.17 310.9393,256.4281 407.4693,265.9981 " fill="#FFFFFF" fill-opacity="0.00000" id="WebServer-to-AppServer-1" style="stroke:#181818;stroke-width:1;"/><polygon fill="#181818" points="413.44,266.59,404.8785,261.7216,408.4644,266.0967,404.0893,269.6826,413.44,266.59" style="stroke:#181818;stroke-width:1;"/><text fill="#000000" font-family="sans-serif" font-size="13" lengthAdjust="spacing" textLength="172.5801" x="222.07" y="218.6669">Obtener recomendaciones</text></g><!--link AppServer to WebServer--><g id="link_AppServer_WebServer"><path d="M626.81,267.35 C691.29,260.4 764.81,247.22 785.07,222.6 C789.87,216.76 789.87,211.43 785.07,205.6 C760.53,175.76 663.8016,163.1993 593.7016,157.6993 " fill="#FFFFFF" fill-opacity="0.00000" id="AppServer-to-WebServer-1" style="stroke:#181818;stroke-width:1;"/><polygon fill="#181818" points="587.72,157.23,596.3795,161.9217,592.7047,157.6211,597.0053,153.9462,587.72,157.23" style="stroke:#181818;stroke-width:1;"/><text fill="#000000" font-family="sans-serif" font-size="13" lengthAdjust="spacing" textLength="203.5947" x="789.07" y="218.6669">Enviar contenido recomendado</text></g><!--link WebServer to AppServer--><g id="link_WebServer_AppServer"><path d="M461.81,175.88 C449.55,183.41 438.19,193.17 431.07,205.6 C420.02,224.86 430.9885,237.7929 452.4885,249.3829 " fill="#FFFFFF" fill-opacity="0.00000" id="WebServer-to-AppServer-2" style="stroke:#181818;stroke-width:1;"/><polygon fill="#181818" points="457.77,252.23,451.7458,244.4384,453.3688,249.8574,447.9497,251.4804,457.77,252.23" style="stroke:#181818;stroke-width:1;"/><text fill="#000000" font-family="sans-serif" font-size="13" lengthAdjust="spacing" textLength="123.1509" x="432.07" y="218.6669">Registrar actividad</text></g><!--link AppServer to WebServer--><g id="link_AppServer_WebServer"><path d="M626.71,275.11 C783.58,273.74 1052.73,263.17 1001.07,205.6 C973.96,175.39 719.6749,161.3175 593.7049,156.1175 " fill="#FFFFFF" fill-opacity="0.00000" id="AppServer-to-WebServer-2" style="stroke:#181818;stroke-width:1;"/><polygon fill="#181818" points="587.71,155.87,596.5374,160.2378,592.7057,156.0762,596.8673,152.2446,587.71,155.87" style="stroke:#181818;stroke-width:1;"/><text fill="#000000" font-family="sans-serif" font-size="13" lengthAdjust="spacing" textLength="86.3853" x="1008.07" y="218.6669">Confirmaci&#243;n</text></g><!--link AppServer to DB--><g id="link_AppServer_DB"><path d="M413.55,283.01 C298.25,290.91 128.03,306.24 108.07,328.89 C61.79,381.4 313.4616,393.8993 443.0916,396.9393 " fill="#FFFFFF" fill-opacity="0.00000" id="AppServer-to-DB" style="stroke:#181818;stroke-width:1;"/><polygon fill="#181818" points="449.09,397.08,440.1863,392.8701,444.0914,396.9628,439.9987,400.8679,449.09,397.08" style="stroke:#181818;stroke-width:1;"/><text fill="#000000" font-family="sans-serif" font-size="13" lengthAdjust="spacing" textLength="140.7148" x="109.07" y="341.9569">Verificar credenciales</text></g><!--link DB to AppServer--><g id="link_DB_AppServer"><path d="M537.7,375.56 C546,362.31 553.25,345.02 549.07,328.89 C546.39,318.56 544.2518,313.258 538.9718,304.438 " fill="#FFFFFF" fill-opacity="0.00000" id="DB-to-AppServer" style="stroke:#181818;stroke-width:1;"/><polygon fill="#181818" points="535.89,299.29,537.0807,309.0666,538.4582,303.58,543.9448,304.9575,535.89,299.29" style="stroke:#181818;stroke-width:1;"/><text fill="#000000" font-family="sans-serif" font-size="13" lengthAdjust="spacing" textLength="180.959" x="551.07" y="341.9569">Respuesta de autenticaci&#243;n</text></g><!--link AppServer to DB--><g id="link_AppServer_DB"><path d="M413.57,288.03 C361.25,296 306.04,308.9 290.07,328.89 C245.05,385.26 359.9113,396.8973 443.0213,398.5973 " fill="#FFFFFF" fill-opacity="0.00000" id="AppServer-to-DB-1" style="stroke:#181818;stroke-width:1;"/><polygon fill="#181818" points="449.02,398.72,440.1037,394.5368,444.021,398.6177,439.9401,402.5351,449.02,398.72" style="stroke:#181818;stroke-width:1;"/><text fill="#000000" font-family="sans-serif" font-size="13" lengthAdjust="spacing" textLength="118.644" x="291.07" y="341.9569">Consultar historial</text></g><!--link DB to AppServer--><g id="link_DB_AppServer"><path d="M591.11,397.98 C670.43,395.37 782.47,382.52 740.07,328.89 C725.34,310.26 681.2965,298.5973 632.7065,290.4073 " fill="#FFFFFF" fill-opacity="0.00000" id="DB-to-AppServer-1" style="stroke:#181818;stroke-width:1;"/><polygon fill="#181818" points="626.79,289.41,635,294.8502,631.7205,290.241,636.3297,286.9615,626.79,289.41" style="stroke:#181818;stroke-width:1;"/><text fill="#000000" font-family="sans-serif" font-size="13" lengthAdjust="spacing" textLength="97.4111" x="748.07" y="341.9569">Enviar historial</text></g><!--link AppServer to DB--><g id="link_AppServer_DB"><path d="M473.74,299.32 C462.68,307.07 452.29,316.89 446.07,328.89 C436.51,347.31 446.428,360.2187 465.348,372.2587 " fill="#FFFFFF" fill-opacity="0.00000" id="AppServer-to-DB-2" style="stroke:#181818;stroke-width:1;"/><polygon fill="#181818" points="470.41,375.48,464.9645,367.2735,466.1917,372.7956,460.6695,374.0228,470.41,375.48" style="stroke:#181818;stroke-width:1;"/><text fill="#000000" font-family="sans-serif" font-size="13" lengthAdjust="spacing" textLength="93.3613" x="447.07" y="341.9569">Guardar datos</text></g><!--link DB to AppServer--><g id="link_DB_AppServer"><path d="M591.11,394.64 C699.4,388.09 889.69,370.5 854.07,328.89 C825.11,295.06 719.1129,283.3113 632.7029,279.1113 " fill="#FFFFFF" fill-opacity="0.00000" id="DB-to-AppServer-2" style="stroke:#181818;stroke-width:1;"/><polygon fill="#181818" points="626.71,278.82,635.5052,283.2522,631.7041,279.0627,635.8936,275.2617,626.71,278.82" style="stroke:#181818;stroke-width:1;"/><text fill="#000000" font-family="sans-serif" font-size="13" lengthAdjust="spacing" textLength="173.126" x="859.07" y="341.9569">Confirmaci&#243;n de guardado</text></g><!--SRC=[ZPB1JiCm38RlVOfezxq01wIL8Ku8j6bmzX9lMEhYoaxtOZm2BuQJbPMo3ZWrJJxR__ydaGEwsKOx4EAP0tKRHQbYsLwZ72cmk5VSbZFxvhrBm7uMRKCUF754BV2YRKTm3OePN4BY4x6igogFS_FvxT3RtRY5zsWak0PSsq227Si1gW791UV-Lh1c6qwf2ta0T0bZAc8-tcCrSBbgMHl-Wa8x0yHviK7H4pIebPtzRBn2RJlK17ys_gx_ZkEEJ77XSYL5ayTvfQYbUEobf73ohUmyH_DlmLw9ftURvNCqIPcyditJrX1R2Ne-O0pz7KtbOhgrQtBZDzB4Oh5CXN8VZpHYhYVHesUTWueBpNq6Zwn9HjQcGtYm9nkCQuNtOgdzai0AztHg2ZwHlLW8K-w_EeRyGATyNrphlbIOn7y-XMd7pxs3SxjF]--></g></svg>