<svg xmlns="http://www.w3.org/2000/svg" xmlns:xlink="http://www.w3.org/1999/xlink" contentStyleType="text/css" data-diagram-type="STATE" height="524px" preserveAspectRatio="none" style="width:568px;height:524px;background:#FFFFFF;" version="1.1" viewBox="0 0 568 524" width="568px" zoomAndPan="magnify"><defs/><g><g id="Login"><rect fill="#F1F1F1" height="50" rx="12.5" ry="12.5" style="stroke:#181818;stroke-width:0.5;" width="127.9736" x="223.52" y="87"/><line style="stroke:#181818;stroke-width:0.5;" x1="223.52" x2="351.4936" y1="113.2969" y2="113.2969"/><text fill="#000000" font-family="sans-serif" font-size="14" lengthAdjust="spacing" textLength="107.9736" x="233.52" y="104.9951">Inicio de sesi&#243;n</text></g><g id="ViewContent"><rect fill="#F1F1F1" height="50" rx="12.5" ry="12.5" style="stroke:#181818;stroke-width:0.5;" width="117.8496" x="228.58" y="214"/><line style="stroke:#181818;stroke-width:0.5;" x1="228.58" x2="346.4296" y1="240.2969" y2="240.2969"/><text fill="#000000" font-family="sans-serif" font-size="14" lengthAdjust="spacing" textLength="97.8496" x="238.58" y="231.9951">Ver contenido</text></g><g id="DoActivity"><rect fill="#F1F1F1" height="50" rx="12.5" ry="12.5" style="stroke:#181818;stroke-width:0.5;" width="145.0156" x="7" y="341"/><line style="stroke:#181818;stroke-width:0.5;" x1="7" x2="152.0156" y1="367.2969" y2="367.2969"/><text fill="#000000" font-family="sans-serif" font-size="14" lengthAdjust="spacing" textLength="125.0156" x="17" y="358.9951">Realizar actividad</text></g><g id="SaveProgress"><rect fill="#F1F1F1" height="50" rx="12.5" ry="12.5" style="stroke:#181818;stroke-width:0.5;" width="144.0518" x="113.48" y="468"/><line style="stroke:#181818;stroke-width:0.5;" x1="113.48" x2="257.5318" y1="494.2969" y2="494.2969"/><text fill="#000000" font-family="sans-serif" font-size="14" lengthAdjust="spacing" textLength="124.0518" x="123.48" y="485.9951">Guardar progreso</text></g><g id="Logout"><rect fill="#F1F1F1" height="50" rx="12.5" ry="12.5" style="stroke:#181818;stroke-width:0.5;" width="113.2148" x="447.9" y="341"/><line style="stroke:#181818;stroke-width:0.5;" x1="447.9" x2="561.1148" y1="367.2969" y2="367.2969"/><text fill="#000000" font-family="sans-serif" font-size="14" lengthAdjust="spacing" textLength="93.2148" x="457.9" y="358.9951">Cerrar sesi&#243;n</text></g><ellipse cx="287.51" cy="16" fill="#222222" rx="10" ry="10" style="stroke:#222222;stroke-width:1;"/><ellipse cx="504.51" cy="493" fill="#FFFFFF" fill-opacity="0.00000" rx="11" ry="11" style="stroke:#222222;stroke-width:1;"/><ellipse cx="504.51" cy="493" fill="#222222" rx="6" ry="6" style="stroke:#222222;stroke-width:1;"/><!--link *start* to Login--><g id="link_*start*_Login"><path d="M287.51,26.36 C287.51,40.29 287.51,60.95 287.51,80.65 " fill="#FFFFFF" fill-opacity="0.00000" id="*start*-to-Login" style="stroke:#181818;stroke-width:1;"/><polygon fill="#181818" points="287.51,86.65,291.51,77.65,287.51,81.65,283.51,77.65,287.51,86.65" style="stroke:#181818;stroke-width:1;"/></g><!--link Login to ViewContent--><g id="link_Login_ViewContent"><path d="M287.51,137.4 C287.51,159.42 287.51,185.66 287.51,207.66 " fill="#FFFFFF" fill-opacity="0.00000" id="Login-to-ViewContent" style="stroke:#181818;stroke-width:1;"/><polygon fill="#181818" points="287.51,213.66,291.51,204.66,287.51,208.66,283.51,204.66,287.51,213.66" style="stroke:#181818;stroke-width:1;"/><text fill="#000000" font-family="sans-serif" font-size="13" lengthAdjust="spacing" textLength="140.4673" x="288.51" y="180.0669">Autenticaci&#243;n exitosa</text></g><!--link ViewContent to DoActivity--><g id="link_ViewContent_DoActivity"><path d="M228.28,246.89 C172.01,254.79 93.28,269.88 74.51,294 C64.42,306.97 64.6073,319.8344 68.6073,334.7644 " fill="#FFFFFF" fill-opacity="0.00000" id="ViewContent-to-DoActivity" style="stroke:#181818;stroke-width:1;"/><polygon fill="#181818" points="70.16,340.56,71.6946,330.8314,68.8661,335.7303,63.9672,332.9018,70.16,340.56" style="stroke:#181818;stroke-width:1;"/><text fill="#000000" font-family="sans-serif" font-size="13" lengthAdjust="spacing" textLength="185.7134" x="75.51" y="307.0669">Usuario selecciona actividad</text></g><!--link DoActivity to SaveProgress--><g id="link_DoActivity_SaveProgress"><path d="M74.76,391.49 C73.27,406.08 73.85,424.35 82.51,438 C90.35,450.36 96.8547,456.9804 109.5347,464.5304 " fill="#FFFFFF" fill-opacity="0.00000" id="DoActivity-to-SaveProgress" style="stroke:#181818;stroke-width:1;"/><polygon fill="#181818" points="114.69,467.6,109.0034,459.5587,110.3939,465.042,104.9106,466.4325,114.69,467.6" style="stroke:#181818;stroke-width:1;"/><text fill="#000000" font-family="sans-serif" font-size="13" lengthAdjust="spacing" textLength="177.9565" x="83.51" y="434.0669">Usuario completa actividad</text></g><!--link SaveProgress to ViewContent--><g id="link_SaveProgress_ViewContent"><path d="M235.87,467.65 C247.37,459.76 258.31,449.9 265.51,438 C298.71,383.1 295.9996,309.7636 291.6296,270.2536 " fill="#FFFFFF" fill-opacity="0.00000" id="SaveProgress-to-ViewContent" style="stroke:#181818;stroke-width:1;"/><polygon fill="#181818" points="290.97,264.29,287.9837,273.6752,291.5197,269.2597,295.9352,272.7957,290.97,264.29" style="stroke:#181818;stroke-width:1;"/><text fill="#000000" font-family="sans-serif" font-size="13" lengthAdjust="spacing" textLength="123.8174" x="294.51" y="370.5669">Progreso guardado</text></g><!--link ViewContent to Logout--><g id="link_ViewContent_Logout"><path d="M329.86,264.4 C368.1,286.42 418.8606,315.6656 457.0606,337.6656 " fill="#FFFFFF" fill-opacity="0.00000" id="ViewContent-to-Logout" style="stroke:#181818;stroke-width:1;"/><polygon fill="#181818" points="462.26,340.66,456.4572,332.7021,457.9272,338.1647,452.4647,339.6346,462.26,340.66" style="stroke:#181818;stroke-width:1;"/><text fill="#000000" font-family="sans-serif" font-size="13" lengthAdjust="spacing" textLength="128.2354" x="409.51" y="307.0669">Usuario decide salir</text></g><!--link Logout to *end*--><g id="link_Logout_*end*"><path d="M504.51,391.4 C504.51,418.82 504.51,456.08 504.51,475.7 " fill="#FFFFFF" fill-opacity="0.00000" id="Logout-to-*end*" style="stroke:#181818;stroke-width:1;"/><polygon fill="#181818" points="504.51,481.7,508.51,472.7,504.51,476.7,500.51,472.7,504.51,481.7" style="stroke:#181818;stroke-width:1;"/></g><!--SRC=[PP51QWCn34NtFeN8if0BT5482OH05wMXsPGkX2q6mTGAbYPDUgqUeHUBxPaXRhCnblM-_VMjXaQms4NsB108b9H_V-82KE5PEevEH-H02Rn4eyX1Qll0zBMk9pP3huGzVsC2zCOd3XWgkP5LhUqoWzi1KyZSCKcNICSBztYYb_50Pt1DAMNkdoqPpBdtXmzOBfycctMjTUCB7c4rb0rxzEK2e3ERABeMAgARnQnvqsmlvw7Kay_1HBmDv1go25lJZTJBvx4dQuL_o7kZKqkWgza4kVCu3juy4iXp-RCSUd9Jju0vcIi0]--></g></svg>