<svg xmlns="http://www.w3.org/2000/svg" xmlns:xlink="http://www.w3.org/1999/xlink" contentStyleType="text/css" data-diagram-type="SEQUENCE" height="560px" preserveAspectRatio="none" style="width:782px;height:560px;background:#FFFFFF;" version="1.1" viewBox="0 0 782 560" width="782px" zoomAndPan="magnify"><defs/><g><g><title>Usuario</title><rect fill="#FFFFFF" fill-opacity="0.00000" height="398.7266" width="8" x="30.6021" y="81.2969"/><line style="stroke:#181818;stroke-width:0.5;stroke-dasharray:5.0,5.0;" x1="34" x2="34" y1="81.2969" y2="480.0234"/></g><g><title>Plataforma EduTech IA</title><rect fill="#FFFFFF" fill-opacity="0.00000" height="398.7266" width="8" x="270.7017" y="81.2969"/><line style="stroke:#181818;stroke-width:0.5;stroke-dasharray:5.0,5.0;" x1="274.0049" x2="274.0049" y1="81.2969" y2="480.0234"/></g><g><title>Sistema de Recomendaci&#243;n IA</title><rect fill="#FFFFFF" fill-opacity="0.00000" height="398.7266" width="8" x="480.981" y="81.2969"/><line style="stroke:#181818;stroke-width:0.5;stroke-dasharray:5.0,5.0;" x1="484.3984" x2="484.3984" y1="81.2969" y2="480.0234"/></g><g><title>Base de Datos</title><rect fill="#FFFFFF" fill-opacity="0.00000" height="398.7266" width="8" x="715.063" y="81.2969"/><line style="stroke:#181818;stroke-width:0.5;stroke-dasharray:5.0,5.0;" x1="718.4634" x2="718.4634" y1="81.2969" y2="480.0234"/></g><g><text fill="#000000" font-family="sans-serif" font-size="14" lengthAdjust="spacing" textLength="53.2041" x="5" y="77.9951">Usuario</text><ellipse cx="34.6021" cy="13.5" fill="#E2E2F0" rx="8" ry="8" style="stroke:#181818;stroke-width:0.5;"/><path d="M34.6021,21.5 L34.6021,48.5 M21.6021,29.5 L47.6021,29.5 M34.6021,48.5 L21.6021,63.5 M34.6021,48.5 L47.6021,63.5 " fill="#FFFFFF" fill-opacity="0.00000" style="stroke:#181818;stroke-width:0.5;"/></g><g><text fill="#000000" font-family="sans-serif" font-size="14" lengthAdjust="spacing" textLength="53.2041" x="5" y="492.0186">Usuario</text><ellipse cx="34.6021" cy="503.8203" fill="#E2E2F0" rx="8" ry="8" style="stroke:#181818;stroke-width:0.5;"/><path d="M34.6021,511.8203 L34.6021,538.8203 M21.6021,519.8203 L47.6021,519.8203 M34.6021,538.8203 L21.6021,553.8203 M34.6021,538.8203 L47.6021,553.8203 " fill="#FFFFFF" fill-opacity="0.00000" style="stroke:#181818;stroke-width:0.5;"/></g><g><rect fill="#E2E2F0" height="30.2969" rx="2.5" ry="2.5" style="stroke:#181818;stroke-width:0.5;" width="173.3936" x="188.0049" y="50"/><text fill="#000000" font-family="sans-serif" font-size="14" lengthAdjust="spacing" textLength="159.3936" x="195.0049" y="69.9951">Plataforma EduTech IA</text></g><g><rect fill="#E2E2F0" height="30.2969" rx="2.5" ry="2.5" style="stroke:#181818;stroke-width:0.5;" width="173.3936" x="188.0049" y="479.0234"/><text fill="#000000" font-family="sans-serif" font-size="14" lengthAdjust="spacing" textLength="159.3936" x="195.0049" y="499.0186">Plataforma EduTech IA</text></g><g><rect fill="#E2E2F0" height="30.2969" rx="2.5" ry="2.5" style="stroke:#181818;stroke-width:0.5;" width="227.165" x="371.3984" y="50"/><text fill="#000000" font-family="sans-serif" font-size="14" lengthAdjust="spacing" textLength="213.165" x="378.3984" y="69.9951">Sistema de Recomendaci&#243;n IA</text></g><g><rect fill="#E2E2F0" height="30.2969" rx="2.5" ry="2.5" style="stroke:#181818;stroke-width:0.5;" width="227.165" x="371.3984" y="479.0234"/><text fill="#000000" font-family="sans-serif" font-size="14" lengthAdjust="spacing" textLength="213.165" x="378.3984" y="499.0186">Sistema de Recomendaci&#243;n IA</text></g><g><rect fill="#E2E2F0" height="30.2969" rx="2.5" ry="2.5" style="stroke:#181818;stroke-width:0.5;" width="115.1992" x="661.4634" y="50"/><text fill="#000000" font-family="sans-serif" font-size="14" lengthAdjust="spacing" textLength="101.1992" x="668.4634" y="69.9951">Base de Datos</text></g><g><rect fill="#E2E2F0" height="30.2969" rx="2.5" ry="2.5" style="stroke:#181818;stroke-width:0.5;" width="115.1992" x="661.4634" y="479.0234"/><text fill="#000000" font-family="sans-serif" font-size="14" lengthAdjust="spacing" textLength="101.1992" x="668.4634" y="499.0186">Base de Datos</text></g><g><polygon fill="#181818" points="262.7017,108.4297,272.7017,112.4297,262.7017,116.4297,266.7017,112.4297" style="stroke:#181818;stroke-width:1;"/><line style="stroke:#181818;stroke-width:1;" x1="34.6021" x2="268.7017" y1="112.4297" y2="112.4297"/><text fill="#000000" font-family="sans-serif" font-size="13" lengthAdjust="spacing" textLength="85.2363" x="41.6021" y="107.3638">Iniciar sesi&#243;n</text></g><g><polygon fill="#181818" points="707.063,137.5625,717.063,141.5625,707.063,145.5625,711.063,141.5625" style="stroke:#181818;stroke-width:1;"/><line style="stroke:#181818;stroke-width:1;" x1="274.7017" x2="713.063" y1="141.5625" y2="141.5625"/><text fill="#000000" font-family="sans-serif" font-size="13" lengthAdjust="spacing" textLength="140.7148" x="281.7017" y="136.4966">Verificar credenciales</text></g><g><polygon fill="#181818" points="285.7017,166.6953,275.7017,170.6953,285.7017,174.6953,281.7017,170.6953" style="stroke:#181818;stroke-width:1;"/><line style="stroke:#181818;stroke-width:1;stroke-dasharray:2.0,2.0;" x1="279.7017" x2="718.063" y1="170.6953" y2="170.6953"/><text fill="#000000" font-family="sans-serif" font-size="13" lengthAdjust="spacing" textLength="162.9634" x="291.7017" y="165.6294">Respuesta (&#233;xito o error)</text></g><g><polygon fill="#181818" points="45.6021,195.8281,35.6021,199.8281,45.6021,203.8281,41.6021,199.8281" style="stroke:#181818;stroke-width:1;"/><line style="stroke:#181818;stroke-width:1;" x1="39.6021" x2="273.7017" y1="199.8281" y2="199.8281"/><text fill="#000000" font-family="sans-serif" font-size="13" lengthAdjust="spacing" textLength="210.939" x="51.6021" y="194.7622">Confirmaci&#243;n de inicio de sesi&#243;n</text></g><g><polygon fill="#181818" points="262.7017,224.9609,272.7017,228.9609,262.7017,232.9609,266.7017,228.9609" style="stroke:#181818;stroke-width:1;"/><line style="stroke:#181818;stroke-width:1;" x1="34.6021" x2="268.7017" y1="228.9609" y2="228.9609"/><text fill="#000000" font-family="sans-serif" font-size="13" lengthAdjust="spacing" textLength="216.0996" x="41.6021" y="223.895">Solicitar contenido personalizado</text></g><g><polygon fill="#181818" points="472.981,254.0938,482.981,258.0938,472.981,262.0938,476.981,258.0938" style="stroke:#181818;stroke-width:1;"/><line style="stroke:#181818;stroke-width:1;" x1="274.7017" x2="478.981" y1="258.0938" y2="258.0938"/><text fill="#000000" font-family="sans-serif" font-size="13" lengthAdjust="spacing" textLength="166.2388" x="281.7017" y="253.0278">Analizar perfil del usuario</text></g><g><polygon fill="#181818" points="707.063,283.2266,717.063,287.2266,707.063,291.2266,711.063,287.2266" style="stroke:#181818;stroke-width:1;"/><line style="stroke:#181818;stroke-width:1;" x1="484.981" x2="713.063" y1="287.2266" y2="287.2266"/><text fill="#000000" font-family="sans-serif" font-size="13" lengthAdjust="spacing" textLength="210.082" x="491.981" y="282.1606">Obtener historial de aprendizaje</text></g><g><polygon fill="#181818" points="495.981,312.3594,485.981,316.3594,495.981,320.3594,491.981,316.3594" style="stroke:#181818;stroke-width:1;"/><line style="stroke:#181818;stroke-width:1;stroke-dasharray:2.0,2.0;" x1="489.981" x2="718.063" y1="316.3594" y2="316.3594"/><text fill="#000000" font-family="sans-serif" font-size="13" lengthAdjust="spacing" textLength="97.4111" x="501.981" y="311.2935">Enviar historial</text></g><g><polygon fill="#181818" points="285.7017,341.4922,275.7017,345.4922,285.7017,349.4922,281.7017,345.4922" style="stroke:#181818;stroke-width:1;"/><line style="stroke:#181818;stroke-width:1;" x1="279.7017" x2="483.981" y1="345.4922" y2="345.4922"/><text fill="#000000" font-family="sans-serif" font-size="13" lengthAdjust="spacing" textLength="160.4878" x="291.7017" y="340.4263">Enviar recomendaciones</text></g><g><polygon fill="#181818" points="45.6021,370.625,35.6021,374.625,45.6021,378.625,41.6021,374.625" style="stroke:#181818;stroke-width:1;"/><line style="stroke:#181818;stroke-width:1;" x1="39.6021" x2="273.7017" y1="374.625" y2="374.625"/><text fill="#000000" font-family="sans-serif" font-size="13" lengthAdjust="spacing" textLength="212.2212" x="51.6021" y="369.5591">Mostrar contenido recomendado</text></g><g><polygon fill="#181818" points="262.7017,399.7578,272.7017,403.7578,262.7017,407.7578,266.7017,403.7578" style="stroke:#181818;stroke-width:1;"/><line style="stroke:#181818;stroke-width:1;" x1="34.6021" x2="268.7017" y1="403.7578" y2="403.7578"/><text fill="#000000" font-family="sans-serif" font-size="13" lengthAdjust="spacing" textLength="131.6948" x="41.6021" y="398.6919">Completar actividad</text></g><g><polygon fill="#181818" points="707.063,428.8906,717.063,432.8906,707.063,436.8906,711.063,432.8906" style="stroke:#181818;stroke-width:1;"/><line style="stroke:#181818;stroke-width:1;" x1="274.7017" x2="713.063" y1="432.8906" y2="432.8906"/><text fill="#000000" font-family="sans-serif" font-size="13" lengthAdjust="spacing" textLength="115.1909" x="281.7017" y="427.8247">Guardar progreso</text></g><g><polygon fill="#181818" points="285.7017,458.0234,275.7017,462.0234,285.7017,466.0234,281.7017,462.0234" style="stroke:#181818;stroke-width:1;"/><line style="stroke:#181818;stroke-width:1;stroke-dasharray:2.0,2.0;" x1="279.7017" x2="718.063" y1="462.0234" y2="462.0234"/><text fill="#000000" font-family="sans-serif" font-size="13" lengthAdjust="spacing" textLength="173.126" x="291.7017" y="456.9575">Confirmaci&#243;n de guardado</text></g><!--SRC=[TL5BJiCm4Dtd5AEkOD4BP86KD1NA0e5QO3_OazOezKHZjqBSY3L7wCKOjqb_jBieVk_D-w29BF0MrYYEimubEkCwz156Bor6R5XM25ExVYMpXBeO0GOulfmpvYv4KhWbc97X5NcBncr__K2iYtD2YO4IkiB8OOSegophtS3uuUHI3hLN7We42aapE_6doBBAuPt4DSuenWXPyWflAMHb1UCBhHc5RaqX8jnjVxvSP60W4PRx2zdUImuJzetJd_iywjabEvo-1aEtZC-vLMXCjjX7yiuoT2I1FRRk6orVtAoB78hzcoHWurezqyAwNwakXi3F7of70aijdaNJ9ZlOYHQlv4yQeYV5gT-azWxGNkRKQ0-HutRijRyRZJnnY78Mwa3KIBVAcF2gQocLWIQwZLFmbIKVbMjJUk65KE1h6_vRPB4ZMVu3]--></g></svg>