<svg xmlns="http://www.w3.org/2000/svg" xmlns:xlink="http://www.w3.org/1999/xlink" contentStyleType="text/css" data-diagram-type="SEQUENCE" height="507px" preserveAspectRatio="none" style="width:676px;height:507px;background:#FFFFFF;" version="1.1" viewBox="0 0 676 507" width="676px" zoomAndPan="magnify"><title>Diagrama Temporal con Secuencia</title><defs/><g><text fill="#000000" font-family="sans-serif" font-size="14" font-weight="bold" lengthAdjust="spacing" textLength="273.0547" x="200.96" y="27.9951">Diagrama Temporal con Secuencia</text><g><title>Usuario</title><rect fill="#FFFFFF" fill-opacity="0.00000" height="398.7266" width="8" x="34.6021" y="73.5938"/><line style="stroke:#181818;stroke-width:0.5;stroke-dasharray:5.0,5.0;" x1="38" x2="38" y1="73.5938" y2="472.3203"/></g><g><title>Plataforma</title><rect fill="#FFFFFF" fill-opacity="0.00000" height="398.7266" width="8" x="337.6196" y="73.5938"/><line style="stroke:#181818;stroke-width:0.5;stroke-dasharray:5.0,5.0;" x1="341.3965" x2="341.3965" y1="73.5938" y2="472.3203"/></g><g><title>Base de Datos</title><rect fill="#FFFFFF" fill-opacity="0.00000" height="398.7266" width="8" x="609.375" y="73.5938"/><line style="stroke:#181818;stroke-width:0.5;stroke-dasharray:5.0,5.0;" x1="612.7754" x2="612.7754" y1="73.5938" y2="472.3203"/></g><g><rect fill="#E2E2F0" height="30.2969" rx="2.5" ry="2.5" style="stroke:#181818;stroke-width:0.5;" width="67.2041" x="5" y="42.2969"/><text fill="#000000" font-family="sans-serif" font-size="14" lengthAdjust="spacing" textLength="53.2041" x="12" y="62.292">Usuario</text></g><g><rect fill="#E2E2F0" height="30.2969" rx="2.5" ry="2.5" style="stroke:#181818;stroke-width:0.5;" width="67.2041" x="5" y="471.3203"/><text fill="#000000" font-family="sans-serif" font-size="14" lengthAdjust="spacing" textLength="53.2041" x="12" y="491.3154">Usuario</text></g><g><rect fill="#E2E2F0" height="30.2969" rx="2.5" ry="2.5" style="stroke:#181818;stroke-width:0.5;" width="90.4463" x="296.3965" y="42.2969"/><text fill="#000000" font-family="sans-serif" font-size="14" lengthAdjust="spacing" textLength="76.4463" x="303.3965" y="62.292">Plataforma</text></g><g><rect fill="#E2E2F0" height="30.2969" rx="2.5" ry="2.5" style="stroke:#181818;stroke-width:0.5;" width="90.4463" x="296.3965" y="471.3203"/><text fill="#000000" font-family="sans-serif" font-size="14" lengthAdjust="spacing" textLength="76.4463" x="303.3965" y="491.3154">Plataforma</text></g><g><rect fill="#E2E2F0" height="30.2969" rx="2.5" ry="2.5" style="stroke:#181818;stroke-width:0.5;" width="115.1992" x="555.7754" y="42.2969"/><text fill="#000000" font-family="sans-serif" font-size="14" lengthAdjust="spacing" textLength="101.1992" x="562.7754" y="62.292">Base de Datos</text></g><g><rect fill="#E2E2F0" height="30.2969" rx="2.5" ry="2.5" style="stroke:#181818;stroke-width:0.5;" width="115.1992" x="555.7754" y="471.3203"/><text fill="#000000" font-family="sans-serif" font-size="14" lengthAdjust="spacing" textLength="101.1992" x="562.7754" y="491.3154">Base de Datos</text></g><g><polygon fill="#181818" points="329.6196,100.7266,339.6196,104.7266,329.6196,108.7266,333.6196,104.7266" style="stroke:#181818;stroke-width:1;"/><line style="stroke:#181818;stroke-width:1;" x1="38.6021" x2="335.6196" y1="104.7266" y2="104.7266"/><text fill="#000000" font-family="sans-serif" font-size="13" lengthAdjust="spacing" textLength="127.2197" x="45.6021" y="99.6606">[0ms] Iniciar sesi&#243;n</text></g><g><polygon fill="#181818" points="601.375,129.8594,611.375,133.8594,601.375,137.8594,605.375,133.8594" style="stroke:#181818;stroke-width:1;"/><line style="stroke:#181818;stroke-width:1;" x1="341.6196" x2="607.375" y1="133.8594" y2="133.8594"/><text fill="#000000" font-family="sans-serif" font-size="13" lengthAdjust="spacing" textLength="207.5112" x="348.6196" y="128.7935">[1000ms] Verificar credenciales</text></g><g><polygon fill="#181818" points="352.6196,158.9922,342.6196,162.9922,352.6196,166.9922,348.6196,162.9922" style="stroke:#181818;stroke-width:1;"/><line style="stroke:#181818;stroke-width:1;stroke-dasharray:2.0,2.0;" x1="346.6196" x2="612.375" y1="162.9922" y2="162.9922"/><text fill="#000000" font-family="sans-serif" font-size="13" lengthAdjust="spacing" textLength="247.7554" x="358.6196" y="157.9263">[2000ms] Respuesta de autenticaci&#243;n</text></g><g><polygon fill="#181818" points="49.6021,188.125,39.6021,192.125,49.6021,196.125,45.6021,192.125" style="stroke:#181818;stroke-width:1;"/><line style="stroke:#181818;stroke-width:1;stroke-dasharray:2.0,2.0;" x1="43.6021" x2="340.6196" y1="192.125" y2="192.125"/><text fill="#000000" font-family="sans-serif" font-size="13" lengthAdjust="spacing" textLength="183.3965" x="55.6021" y="187.0591">[3000ms] Acceso concedido</text></g><g><polygon fill="#181818" points="329.6196,217.2578,339.6196,221.2578,329.6196,225.2578,333.6196,221.2578" style="stroke:#181818;stroke-width:1;"/><line style="stroke:#181818;stroke-width:1;" x1="38.6021" x2="335.6196" y1="221.2578" y2="221.2578"/><text fill="#000000" font-family="sans-serif" font-size="13" lengthAdjust="spacing" textLength="188.0176" x="45.6021" y="216.1919">[4000ms] Solicitar contenido</text></g><g><polygon fill="#181818" points="601.375,246.3906,611.375,250.3906,601.375,254.3906,605.375,250.3906" style="stroke:#181818;stroke-width:1;"/><line style="stroke:#181818;stroke-width:1;" x1="341.6196" x2="607.375" y1="250.3906" y2="250.3906"/><text fill="#000000" font-family="sans-serif" font-size="13" lengthAdjust="spacing" textLength="185.4404" x="348.6196" y="245.3247">[5000ms] Consultar historial</text></g><g><polygon fill="#181818" points="352.6196,275.5234,342.6196,279.5234,352.6196,283.5234,348.6196,279.5234" style="stroke:#181818;stroke-width:1;"/><line style="stroke:#181818;stroke-width:1;stroke-dasharray:2.0,2.0;" x1="346.6196" x2="612.375" y1="279.5234" y2="279.5234"/><text fill="#000000" font-family="sans-serif" font-size="13" lengthAdjust="spacing" textLength="148.04" x="358.6196" y="274.4575">[6000ms] Enviar datos</text></g><g><polygon fill="#181818" points="49.6021,304.6563,39.6021,308.6563,49.6021,312.6563,45.6021,308.6563" style="stroke:#181818;stroke-width:1;"/><line style="stroke:#181818;stroke-width:1;stroke-dasharray:2.0,2.0;" x1="43.6021" x2="340.6196" y1="308.6563" y2="308.6563"/><text fill="#000000" font-family="sans-serif" font-size="13" lengthAdjust="spacing" textLength="279.0176" x="55.6021" y="303.5903">[7000ms] Mostrar contenido recomendado</text></g><g><polygon fill="#181818" points="329.6196,333.7891,339.6196,337.7891,329.6196,341.7891,333.6196,337.7891" style="stroke:#181818;stroke-width:1;"/><line style="stroke:#181818;stroke-width:1;" x1="38.6021" x2="335.6196" y1="337.7891" y2="337.7891"/><text fill="#000000" font-family="sans-serif" font-size="13" lengthAdjust="spacing" textLength="198.4912" x="45.6021" y="332.7231">[8000ms] Completar actividad</text></g><g><polygon fill="#181818" points="601.375,362.9219,611.375,366.9219,601.375,370.9219,605.375,366.9219" style="stroke:#181818;stroke-width:1;"/><line style="stroke:#181818;stroke-width:1;" x1="341.6196" x2="607.375" y1="366.9219" y2="366.9219"/><text fill="#000000" font-family="sans-serif" font-size="13" lengthAdjust="spacing" textLength="181.9873" x="348.6196" y="361.856">[9000ms] Guardar progreso</text></g><g><polygon fill="#181818" points="352.6196,392.0547,342.6196,396.0547,352.6196,400.0547,348.6196,396.0547" style="stroke:#181818;stroke-width:1;"/><line style="stroke:#181818;stroke-width:1;stroke-dasharray:2.0,2.0;" x1="346.6196" x2="612.375" y1="396.0547" y2="396.0547"/><text fill="#000000" font-family="sans-serif" font-size="13" lengthAdjust="spacing" textLength="161.4526" x="358.6196" y="390.9888">[10000ms] Confirmaci&#243;n</text></g><g><polygon fill="#181818" points="49.6021,421.1875,39.6021,425.1875,49.6021,429.1875,45.6021,425.1875" style="stroke:#181818;stroke-width:1;"/><line style="stroke:#181818;stroke-width:1;stroke-dasharray:2.0,2.0;" x1="43.6021" x2="340.6196" y1="425.1875" y2="425.1875"/><text fill="#000000" font-family="sans-serif" font-size="13" lengthAdjust="spacing" textLength="248.1934" x="55.6021" y="420.1216">[11000ms] Confirmaci&#243;n de guardado</text></g><g><polygon fill="#181818" points="329.6196,450.3203,339.6196,454.3203,329.6196,458.3203,333.6196,454.3203" style="stroke:#181818;stroke-width:1;"/><line style="stroke:#181818;stroke-width:1;" x1="38.6021" x2="335.6196" y1="454.3203" y2="454.3203"/><text fill="#000000" font-family="sans-serif" font-size="13" lengthAdjust="spacing" textLength="161.624" x="45.6021" y="449.2544">[12000ms] Cerrar sesi&#243;n</text></g><!--SRC=[VP9BJiD038RtEONLVQM6DooGI8CG2oH4WGtgmffnoqZpY3oJNemZS34yqHG8RTactsz_jYUPP0bQWsj6X_1ChWkC5bJmi23LarS6gwf3JaQP3ds2bzWZcp3wDdcqc70LsE44CCB2n4GEnqo3aK1BDqmX3bZJLbKf1zFhRUeAtcOkBk7UInGP8aNp-U6hyZkJJIjGFPiDt2knMHabf6BIWx6bM3KjJ4T5Zmh_HB7hAIRCCjWdykA8Qjn3aiLCaiSbUQCKnP2NeqWR7VRBdnHw4QmCaB9NyD8b1_xES5hOUV2njvbz5oAmZB0xm5c1R_qcxqNdFHumFY_eGuY9Vni0amgElCP3-XVVIgwpb9LG9RCnajZHlopidTJHGdOSrYmhsdNFnzfEkZBoJlxRTrtlW_EvraEZG-hrziHpOlvvELy0]--></g></svg>